<?xml version="1.0" standalone="no"?>
<!DOCTYPE svg PUBLIC "-//W3C//DTD SVG 20010904//EN"
 "http://www.w3.org/TR/2001/REC-SVG-20010904/DTD/svg10.dtd">
<svg version="1.0" xmlns="http://www.w3.org/2000/svg"
 width="1024.000000pt" height="1024.000000pt" viewBox="0 0 1024.000000 1024.000000"
 preserveAspectRatio="xMidYMid meet">

<g transform="translate(0.000000,1024.000000) scale(0.100000,-0.100000)"
fill="#000000" stroke="none">
<path d="M0 5120 l0 -5120 5120 0 5120 0 0 5120 0 5120 -5120 0 -5120 0 0
-5120z m5640 4001 c941 -127 1807 -573 2423 -1248 627 -689 955 -1396 1063
-2298 28 -230 26 -750 -4 -975 -38 -292 -92 -514 -195 -810 -89 -252 -139
-367 -242 -555 -228 -415 -410 -661 -704 -956 -668 -666 -1506 -1071 -2426
-1171 -184 -20 -713 -17 -895 6 -528 64 -1026 215 -1415 427 -555 304 -1057
750 -1425 1265 -390 546 -632 1189 -711 1889 -18 165 -20 228 -16 480 6 386
37 628 123 953 185 704 496 1260 992 1774 690 714 1498 1111 2508 1233 181 21
718 13 924 -14z"/>
<path d="M3965 7003 c-461 -34 -1076 -139 -1334 -228 -99 -33 -150 -65 -204
-125 -63 -70 -90 -144 -90 -245 0 -114 28 -182 107 -261 122 -122 237 -137
511 -66 492 125 990 182 1605 182 501 0 859 -32 1340 -121 298 -54 557 -122
840 -217 215 -73 343 -128 612 -264 239 -120 244 -122 320 -126 180 -9 338
100 389 270 43 141 9 259 -106 367 -77 71 -156 119 -370 222 -566 271 -1198
455 -1890 549 -438 59 -504 63 -1110 65 -313 1 -592 0 -620 -2z"/>
<path d="M4110 5623 c-395 -21 -1043 -133 -1283 -223 -78 -29 -146 -86 -182
-151 -27 -49 -30 -62 -30 -149 0 -80 4 -102 23 -138 54 -101 165 -172 270
-172 35 0 120 16 214 39 411 104 752 152 1183 166 704 22 1496 -116 2148 -376
143 -57 354 -160 483 -234 136 -80 179 -95 260 -95 173 0 314 133 314 295 0
124 -47 209 -159 285 -91 61 -342 193 -512 270 -614 274 -1293 435 -2029 480
-148 9 -557 11 -700 3z"/>
<path d="M4075 4300 c-288 -18 -934 -118 -1120 -174 -205 -62 -240 -341 -57
-457 63 -40 135 -39 355 6 182 36 580 98 738 115 267 28 676 22 1052 -16 505
-50 974 -195 1447 -448 206 -110 239 -122 316 -106 196 41 264 304 113 434
-22 18 -102 68 -178 110 -516 285 -1052 452 -1671 522 -166 19 -780 27 -995
14z"/>
</g>
</svg>
